# xmcd
#
# Track frame offsets:
#	150
#	9284
#	20339
#	32022
#	42061
#	59057
#	70346
#	84271
#	95304
#	108279
#	116659
#	128582
#
# Disc length: 1886 seconds
#
# Revision: 1
# Processed by: cddbd v1.5.2PL0 Copyright (c) Steve Scherf et al.
# Submitted via: audiograbber 1.83.01
#
DISCID=8c075c0c
DTITLE=Tom Jones - Tom Jones Live CD2
DYEAR=2006
DGENRE=Pop/Funk
TTITLE0=Daughter of Darkness
TTITLE1=Sexy Eyes
TTITLE2=You Win Again
TTITLE3=The Closer I Get to You
TTITLE4=She Believes in Me
TTITLE5=Send in the Clowns
TTITLE6=I Write the Songs
TTITLE7=The Way You Do the Things You Do
TTITLE8=The Way You Do the Things You Do
TTITLE9=Starting Over
TTITLE10=All by Myself
TTITLE11=Yesterday
EXTD=
EXTT0=
EXTT1=
EXTT2=
EXTT3=
EXTT4=
EXTT5=
EXTT6=
EXTT7=
EXTT8=
EXTT9=
EXTT10=
EXTT11=
PLAYORDER=
